<mxfile host="app.diagrams.net" modified="2023-04-14T10:16:49.143Z" agent="Mozilla/5.0 (Macintosh; Intel Mac OS X 10_15_7) AppleWebKit/537.36 (KHTML, like Gecko) Chrome/110.0.0.0 Safari/537.36" etag="64Zs-eNC8QtmyHsWWG2K" version="21.1.7" type="github">
  <diagram name="Page-1" id="V6JJkBLZ3X7MFXc5J8j4">
    <mxGraphModel dx="1247" dy="1787" grid="1" gridSize="10" guides="1" tooltips="1" connect="1" arrows="1" fold="1" page="1" pageScale="1" pageWidth="827" pageHeight="1169" math="0" shadow="0">
      <root>
        <mxCell id="0" />
        <mxCell id="1" parent="0" />
        <mxCell id="2Os-_nxIUmYMw6oaQCa7-134" style="edgeStyle=orthogonalEdgeStyle;orthogonalLoop=1;jettySize=auto;html=1;exitX=1;exitY=0.5;exitDx=0;exitDy=0;strokeColor=none;curved=1;" edge="1" parent="1" source="2Os-_nxIUmYMw6oaQCa7-127">
          <mxGeometry relative="1" as="geometry">
            <mxPoint x="470" y="990" as="targetPoint" />
            <Array as="points">
              <mxPoint x="380" y="990" />
            </Array>
          </mxGeometry>
        </mxCell>
        <mxCell id="2Os-_nxIUmYMw6oaQCa7-127" value="" style="ellipse;whiteSpace=wrap;html=1;aspect=fixed;fillColor=none;" vertex="1" parent="1">
          <mxGeometry x="300" y="880" width="80" height="80" as="geometry" />
        </mxCell>
        <mxCell id="2Os-_nxIUmYMw6oaQCa7-125" value="" style="rounded=0;whiteSpace=wrap;html=1;fillStyle=auto;fillColor=none;dashed=1;strokeWidth=0.5;" vertex="1" parent="1">
          <mxGeometry x="450" y="1040" width="260" height="60" as="geometry" />
        </mxCell>
        <mxCell id="H-iuaEzCQriTZ5NKG3YE-48" value="" style="rounded=1;whiteSpace=wrap;html=1;" parent="1" vertex="1">
          <mxGeometry x="410" y="558" width="120" height="60" as="geometry" />
        </mxCell>
        <mxCell id="H-iuaEzCQriTZ5NKG3YE-45" value="" style="rounded=1;whiteSpace=wrap;html=1;" parent="1" vertex="1">
          <mxGeometry x="140" y="555" width="120" height="60" as="geometry" />
        </mxCell>
        <mxCell id="H-iuaEzCQriTZ5NKG3YE-7" value="" style="group" parent="1" vertex="1" connectable="0">
          <mxGeometry x="380" y="170" width="120" height="60" as="geometry" />
        </mxCell>
        <mxCell id="H-iuaEzCQriTZ5NKG3YE-8" value="" style="rounded=1;whiteSpace=wrap;html=1;" parent="H-iuaEzCQriTZ5NKG3YE-7" vertex="1">
          <mxGeometry width="120" height="60" as="geometry" />
        </mxCell>
        <mxCell id="H-iuaEzCQriTZ5NKG3YE-9" value="INTEGRATIONS" style="text;html=1;strokeColor=none;fillColor=none;align=center;verticalAlign=middle;whiteSpace=wrap;rounded=0;" parent="H-iuaEzCQriTZ5NKG3YE-7" vertex="1">
          <mxGeometry x="30" y="15" width="60" height="30" as="geometry" />
        </mxCell>
        <mxCell id="H-iuaEzCQriTZ5NKG3YE-10" value="" style="group" parent="1" vertex="1" connectable="0">
          <mxGeometry x="600" y="170" width="120" height="60" as="geometry" />
        </mxCell>
        <mxCell id="H-iuaEzCQriTZ5NKG3YE-11" value="" style="rounded=1;whiteSpace=wrap;html=1;" parent="H-iuaEzCQriTZ5NKG3YE-10" vertex="1">
          <mxGeometry width="120" height="60" as="geometry" />
        </mxCell>
        <mxCell id="H-iuaEzCQriTZ5NKG3YE-12" value="MONDAY" style="text;html=1;strokeColor=none;fillColor=none;align=center;verticalAlign=middle;whiteSpace=wrap;rounded=0;" parent="H-iuaEzCQriTZ5NKG3YE-10" vertex="1">
          <mxGeometry x="30" y="15" width="60" height="30" as="geometry" />
        </mxCell>
        <mxCell id="H-iuaEzCQriTZ5NKG3YE-18" value="Onoff user" style="shape=umlActor;verticalLabelPosition=bottom;verticalAlign=top;html=1;outlineConnect=0;" parent="1" vertex="1">
          <mxGeometry x="22" y="298" width="30" height="60" as="geometry" />
        </mxCell>
        <mxCell id="H-iuaEzCQriTZ5NKG3YE-2" value="" style="rounded=1;whiteSpace=wrap;html=1;" parent="1" vertex="1">
          <mxGeometry x="145" y="170" width="130" height="60" as="geometry" />
        </mxCell>
        <mxCell id="H-iuaEzCQriTZ5NKG3YE-17" value="" style="endArrow=classic;html=1;rounded=0;" parent="1" edge="1">
          <mxGeometry width="50" height="50" relative="1" as="geometry">
            <mxPoint x="210" y="320" as="sourcePoint" />
            <mxPoint x="440" y="320" as="targetPoint" />
          </mxGeometry>
        </mxCell>
        <mxCell id="H-iuaEzCQriTZ5NKG3YE-3" value="ONOFF TELECOM&lt;br&gt;&lt;font style=&quot;font-size: 8px;&quot;&gt;end user search / call start event&lt;/font&gt;" style="text;html=1;strokeColor=none;fillColor=none;align=center;verticalAlign=middle;whiteSpace=wrap;rounded=0;" parent="1" vertex="1">
          <mxGeometry x="100" y="185" width="220" height="30" as="geometry" />
        </mxCell>
        <mxCell id="H-iuaEzCQriTZ5NKG3YE-19" value="" style="endArrow=classic;html=1;rounded=0;" parent="1" edge="1" source="H-iuaEzCQriTZ5NKG3YE-20">
          <mxGeometry width="50" height="50" relative="1" as="geometry">
            <mxPoint x="80" y="298.5" as="sourcePoint" />
            <mxPoint x="210" y="299" as="targetPoint" />
          </mxGeometry>
        </mxCell>
        <mxCell id="H-iuaEzCQriTZ5NKG3YE-21" value="&lt;font style=&quot;font-size: 10px;&quot;&gt;Sends an event with contactPhoneId&lt;/font&gt;" style="text;html=1;strokeColor=none;fillColor=none;align=center;verticalAlign=middle;whiteSpace=wrap;rounded=0;" parent="1" vertex="1">
          <mxGeometry x="263" y="307" width="130" height="26" as="geometry" />
        </mxCell>
        <mxCell id="H-iuaEzCQriTZ5NKG3YE-26" value="&lt;div style=&quot;text-align: left;&quot;&gt;&lt;span style=&quot;font-size: 10px; background-color: initial;&quot;&gt;Verifications:&lt;/span&gt;&lt;/div&gt;&lt;font size=&quot;1&quot; style=&quot;&quot;&gt;&lt;div style=&quot;text-align: left;&quot;&gt;&lt;span style=&quot;background-color: initial; font-size: 8px;&quot;&gt;is there Monday board integration&lt;/span&gt;&lt;/div&gt;&lt;/font&gt;" style="text;html=1;strokeColor=none;fillColor=none;align=center;verticalAlign=middle;whiteSpace=wrap;rounded=0;" parent="1" vertex="1">
          <mxGeometry x="480" y="365" width="80" height="30" as="geometry" />
        </mxCell>
        <mxCell id="H-iuaEzCQriTZ5NKG3YE-29" value="" style="endArrow=classic;html=1;curved=1;" parent="1" edge="1">
          <mxGeometry width="50" height="50" relative="1" as="geometry">
            <mxPoint x="440" y="370" as="sourcePoint" />
            <mxPoint x="440" y="389" as="targetPoint" />
            <Array as="points">
              <mxPoint x="470" y="370" />
              <mxPoint x="470" y="390" />
            </Array>
          </mxGeometry>
        </mxCell>
        <mxCell id="H-iuaEzCQriTZ5NKG3YE-30" value="" style="endArrow=classic;html=1;rounded=0;" parent="1" edge="1">
          <mxGeometry width="50" height="50" relative="1" as="geometry">
            <mxPoint x="440" y="428" as="sourcePoint" />
            <mxPoint x="660" y="428" as="targetPoint" />
          </mxGeometry>
        </mxCell>
        <mxCell id="H-iuaEzCQriTZ5NKG3YE-35" value="&lt;font style=&quot;font-size: 10px;&quot;&gt;HTTP POST search&lt;/font&gt;" style="text;html=1;strokeColor=none;fillColor=none;align=center;verticalAlign=middle;whiteSpace=wrap;rounded=0;" parent="1" vertex="1">
          <mxGeometry x="490" y="411" width="120" height="15" as="geometry" />
        </mxCell>
        <mxCell id="H-iuaEzCQriTZ5NKG3YE-36" value="" style="endArrow=classic;html=1;rounded=0;" parent="1" edge="1">
          <mxGeometry width="50" height="50" relative="1" as="geometry">
            <mxPoint x="660" y="443" as="sourcePoint" />
            <mxPoint x="440" y="443" as="targetPoint" />
          </mxGeometry>
        </mxCell>
        <mxCell id="H-iuaEzCQriTZ5NKG3YE-37" value="&lt;font style=&quot;font-size: 10px;&quot;&gt;{Contact data}&lt;/font&gt;" style="text;html=1;strokeColor=none;fillColor=none;align=center;verticalAlign=middle;whiteSpace=wrap;rounded=0;" parent="1" vertex="1">
          <mxGeometry x="490" y="448" width="120" height="15" as="geometry" />
        </mxCell>
        <mxCell id="H-iuaEzCQriTZ5NKG3YE-43" value="A new item is created on &lt;font color=&quot;#0000ff&quot;&gt;Onoff Call/Sms&lt;/font&gt; board" style="text;html=1;strokeColor=none;fillColor=none;align=center;verticalAlign=middle;whiteSpace=wrap;rounded=0;" parent="1" vertex="1">
          <mxGeometry x="415" y="550" width="112" height="76" as="geometry" />
        </mxCell>
        <mxCell id="H-iuaEzCQriTZ5NKG3YE-44" value="" style="endArrow=classic;html=1;rounded=0;strokeWidth=1;endSize=12;" parent="1" edge="1">
          <mxGeometry width="50" height="50" relative="1" as="geometry">
            <mxPoint x="270" y="588" as="sourcePoint" />
            <mxPoint x="401" y="588" as="targetPoint" />
          </mxGeometry>
        </mxCell>
        <mxCell id="H-iuaEzCQriTZ5NKG3YE-39" value="A call / sms / VM occurs in Onoff" style="text;html=1;strokeColor=none;fillColor=none;align=center;verticalAlign=middle;whiteSpace=wrap;rounded=0;" parent="1" vertex="1">
          <mxGeometry x="150" y="555" width="100" height="66" as="geometry" />
        </mxCell>
        <mxCell id="H-iuaEzCQriTZ5NKG3YE-49" value="" style="group" parent="1" vertex="1" connectable="0">
          <mxGeometry x="380" y="-310" width="120" height="60" as="geometry" />
        </mxCell>
        <mxCell id="H-iuaEzCQriTZ5NKG3YE-50" value="" style="rounded=1;whiteSpace=wrap;html=1;" parent="H-iuaEzCQriTZ5NKG3YE-49" vertex="1">
          <mxGeometry width="120" height="60" as="geometry" />
        </mxCell>
        <mxCell id="H-iuaEzCQriTZ5NKG3YE-51" value="INTEGRATIONS" style="text;html=1;strokeColor=none;fillColor=none;align=center;verticalAlign=middle;whiteSpace=wrap;rounded=0;" parent="H-iuaEzCQriTZ5NKG3YE-49" vertex="1">
          <mxGeometry x="30" y="15" width="60" height="30" as="geometry" />
        </mxCell>
        <mxCell id="H-iuaEzCQriTZ5NKG3YE-52" value="" style="group" parent="1" vertex="1" connectable="0">
          <mxGeometry x="600" y="-310" width="120" height="60" as="geometry" />
        </mxCell>
        <mxCell id="H-iuaEzCQriTZ5NKG3YE-53" value="" style="rounded=1;whiteSpace=wrap;html=1;" parent="H-iuaEzCQriTZ5NKG3YE-52" vertex="1">
          <mxGeometry width="120" height="60" as="geometry" />
        </mxCell>
        <mxCell id="H-iuaEzCQriTZ5NKG3YE-54" value="MONDAY" style="text;html=1;strokeColor=none;fillColor=none;align=center;verticalAlign=middle;whiteSpace=wrap;rounded=0;" parent="H-iuaEzCQriTZ5NKG3YE-52" vertex="1">
          <mxGeometry x="30" y="15" width="60" height="30" as="geometry" />
        </mxCell>
        <mxCell id="H-iuaEzCQriTZ5NKG3YE-57" value="Monday user" style="shape=umlActor;verticalLabelPosition=bottom;verticalAlign=top;html=1;outlineConnect=0;" parent="1" vertex="1">
          <mxGeometry x="801" y="-245" width="30" height="60" as="geometry" />
        </mxCell>
        <mxCell id="H-iuaEzCQriTZ5NKG3YE-58" value="" style="rounded=1;whiteSpace=wrap;html=1;" parent="1" vertex="1">
          <mxGeometry x="150" y="-310" width="120" height="60" as="geometry" />
        </mxCell>
        <mxCell id="H-iuaEzCQriTZ5NKG3YE-61" value="ONOFF TELECOM" style="text;html=1;strokeColor=none;fillColor=none;align=center;verticalAlign=middle;whiteSpace=wrap;rounded=0;" parent="1" vertex="1">
          <mxGeometry x="180" y="-295" width="60" height="30" as="geometry" />
        </mxCell>
        <mxCell id="H-iuaEzCQriTZ5NKG3YE-62" value="" style="endArrow=classic;html=1;rounded=0;" parent="1" edge="1">
          <mxGeometry width="50" height="50" relative="1" as="geometry">
            <mxPoint x="790" y="-194.76" as="sourcePoint" />
            <mxPoint x="660" y="-194.76" as="targetPoint" />
          </mxGeometry>
        </mxCell>
        <mxCell id="H-iuaEzCQriTZ5NKG3YE-63" value="&lt;font style=&quot;font-size: 10px;&quot;&gt;Integrates a board with Onoff recipe and custom trigger&lt;/font&gt;" style="text;html=1;strokeColor=none;fillColor=none;align=center;verticalAlign=middle;whiteSpace=wrap;rounded=0;" parent="1" vertex="1">
          <mxGeometry x="676" y="-234.76" width="110" height="30" as="geometry" />
        </mxCell>
        <mxCell id="H-iuaEzCQriTZ5NKG3YE-65" value="&lt;div style=&quot;text-align: left; font-size: 8px;&quot;&gt;&lt;span style=&quot;&quot;&gt;Stores:&lt;br&gt;&lt;span style=&quot;white-space: pre;&quot;&gt;	&lt;/span&gt;userId&lt;br&gt;&lt;span style=&quot;white-space: pre;&quot;&gt;	&lt;/span&gt;webHookId&lt;br&gt;&lt;span style=&quot;white-space: pre;&quot;&gt;	&lt;/span&gt;boardId&lt;br&gt;&lt;span style=&quot;white-space: pre;&quot;&gt;	&lt;/span&gt;relevantColumnIds&lt;br&gt;&lt;/span&gt;&lt;/div&gt;" style="text;html=1;strokeColor=none;fillColor=none;align=center;verticalAlign=middle;whiteSpace=wrap;rounded=0;" parent="1" vertex="1">
          <mxGeometry x="330" y="-142" width="90" height="30" as="geometry" />
        </mxCell>
        <mxCell id="H-iuaEzCQriTZ5NKG3YE-66" value="" style="endArrow=classic;html=1;curved=1;" parent="1" edge="1">
          <mxGeometry width="50" height="50" relative="1" as="geometry">
            <mxPoint x="440" y="-141" as="sourcePoint" />
            <mxPoint x="440" y="-122" as="targetPoint" />
            <Array as="points">
              <mxPoint x="411" y="-141" />
              <mxPoint x="411" y="-122" />
            </Array>
          </mxGeometry>
        </mxCell>
        <mxCell id="H-iuaEzCQriTZ5NKG3YE-67" value="" style="endArrow=classic;html=1;rounded=0;" parent="1" edge="1">
          <mxGeometry width="50" height="50" relative="1" as="geometry">
            <mxPoint x="440" y="7" as="sourcePoint" />
            <mxPoint x="660" y="7" as="targetPoint" />
          </mxGeometry>
        </mxCell>
        <mxCell id="H-iuaEzCQriTZ5NKG3YE-68" value="&lt;font style=&quot;font-size: 10px;&quot;&gt;HTTP POST search&lt;/font&gt;" style="text;html=1;strokeColor=none;fillColor=none;align=center;verticalAlign=middle;whiteSpace=wrap;rounded=0;" parent="1" vertex="1">
          <mxGeometry x="490" y="-10" width="120" height="15" as="geometry" />
        </mxCell>
        <mxCell id="H-iuaEzCQriTZ5NKG3YE-69" value="" style="endArrow=classic;html=1;rounded=0;" parent="1" edge="1">
          <mxGeometry width="50" height="50" relative="1" as="geometry">
            <mxPoint x="660" y="22" as="sourcePoint" />
            <mxPoint x="440" y="22" as="targetPoint" />
          </mxGeometry>
        </mxCell>
        <mxCell id="H-iuaEzCQriTZ5NKG3YE-70" value="&lt;font style=&quot;font-size: 10px;&quot;&gt;{Contact data}&lt;/font&gt;" style="text;html=1;strokeColor=none;fillColor=none;align=center;verticalAlign=middle;whiteSpace=wrap;rounded=0;" parent="1" vertex="1">
          <mxGeometry x="490" y="27" width="120" height="15" as="geometry" />
        </mxCell>
        <mxCell id="H-iuaEzCQriTZ5NKG3YE-75" value="" style="endArrow=classic;html=1;rounded=0;" parent="1" edge="1">
          <mxGeometry width="50" height="50" relative="1" as="geometry">
            <mxPoint x="660" y="-149" as="sourcePoint" />
            <mxPoint x="440" y="-149" as="targetPoint" />
          </mxGeometry>
        </mxCell>
        <mxCell id="H-iuaEzCQriTZ5NKG3YE-80" value="{webhookUrl, input, jwt}" style="edgeLabel;html=1;align=center;verticalAlign=middle;resizable=0;points=[];" parent="H-iuaEzCQriTZ5NKG3YE-75" vertex="1" connectable="0">
          <mxGeometry x="-0.1328" relative="1" as="geometry">
            <mxPoint x="-25" as="offset" />
          </mxGeometry>
        </mxCell>
        <mxCell id="H-iuaEzCQriTZ5NKG3YE-76" value="&lt;span style=&quot;font-size: 10px;&quot;&gt;HTTP POST subscribeUrl&lt;/span&gt;" style="text;html=1;strokeColor=none;fillColor=none;align=center;verticalAlign=middle;whiteSpace=wrap;rounded=0;" parent="1" vertex="1">
          <mxGeometry x="476" y="-178" width="130" height="26" as="geometry" />
        </mxCell>
        <mxCell id="H-iuaEzCQriTZ5NKG3YE-77" value="" style="endArrow=classic;html=1;rounded=0;" parent="1" edge="1">
          <mxGeometry width="50" height="50" relative="1" as="geometry">
            <mxPoint x="440" y="-112" as="sourcePoint" />
            <mxPoint x="660" y="-112" as="targetPoint" />
          </mxGeometry>
        </mxCell>
        <mxCell id="H-iuaEzCQriTZ5NKG3YE-87" value="" style="group" parent="1" vertex="1" connectable="0">
          <mxGeometry x="209.71" y="-240" width="450.79" height="170" as="geometry" />
        </mxCell>
        <mxCell id="H-iuaEzCQriTZ5NKG3YE-55" value="" style="endArrow=none;html=1;rounded=0;" parent="H-iuaEzCQriTZ5NKG3YE-87" edge="1">
          <mxGeometry width="50" height="50" relative="1" as="geometry">
            <mxPoint x="230.79000000000005" y="170" as="sourcePoint" />
            <mxPoint x="230.29000000000005" as="targetPoint" />
          </mxGeometry>
        </mxCell>
        <mxCell id="H-iuaEzCQriTZ5NKG3YE-56" value="" style="endArrow=none;html=1;rounded=0;" parent="H-iuaEzCQriTZ5NKG3YE-87" edge="1">
          <mxGeometry width="50" height="50" relative="1" as="geometry">
            <mxPoint x="450.7900000000001" y="170" as="sourcePoint" />
            <mxPoint x="450.2900000000001" as="targetPoint" />
          </mxGeometry>
        </mxCell>
        <mxCell id="H-iuaEzCQriTZ5NKG3YE-84" value="" style="endArrow=none;html=1;rounded=0;" parent="H-iuaEzCQriTZ5NKG3YE-87" edge="1">
          <mxGeometry width="50" height="50" relative="1" as="geometry">
            <mxPoint x="0.5000000000000001" y="170" as="sourcePoint" />
            <mxPoint as="targetPoint" />
          </mxGeometry>
        </mxCell>
        <mxCell id="H-iuaEzCQriTZ5NKG3YE-86" value="&lt;font style=&quot;font-size: 10px;&quot;&gt;{WebhookId}&lt;/font&gt;" style="text;html=1;strokeColor=none;fillColor=none;align=center;verticalAlign=middle;whiteSpace=wrap;rounded=0;" parent="H-iuaEzCQriTZ5NKG3YE-87" vertex="1">
          <mxGeometry x="270.29" y="127.66666666666666" width="120.00000000000003" height="14.166666666666666" as="geometry" />
        </mxCell>
        <mxCell id="2Os-_nxIUmYMw6oaQCa7-135" value="" style="shape=cylinder3;whiteSpace=wrap;html=1;boundedLbl=1;backgroundOutline=1;size=15;" vertex="1" parent="H-iuaEzCQriTZ5NKG3YE-87">
          <mxGeometry x="80" y="90" width="30.29" height="51.83" as="geometry" />
        </mxCell>
        <mxCell id="2Os-_nxIUmYMw6oaQCa7-24" value="" style="group" vertex="1" connectable="0" parent="1">
          <mxGeometry x="380" y="-740" width="120" height="60" as="geometry" />
        </mxCell>
        <mxCell id="2Os-_nxIUmYMw6oaQCa7-25" value="" style="rounded=1;whiteSpace=wrap;html=1;" vertex="1" parent="2Os-_nxIUmYMw6oaQCa7-24">
          <mxGeometry width="120" height="60" as="geometry" />
        </mxCell>
        <mxCell id="2Os-_nxIUmYMw6oaQCa7-26" value="INTEGRATIONS" style="text;html=1;strokeColor=none;fillColor=none;align=center;verticalAlign=middle;whiteSpace=wrap;rounded=0;" vertex="1" parent="2Os-_nxIUmYMw6oaQCa7-24">
          <mxGeometry x="30" y="15" width="60" height="30" as="geometry" />
        </mxCell>
        <mxCell id="2Os-_nxIUmYMw6oaQCa7-27" value="" style="group" vertex="1" connectable="0" parent="1">
          <mxGeometry x="600" y="-740" width="120" height="60" as="geometry" />
        </mxCell>
        <mxCell id="2Os-_nxIUmYMw6oaQCa7-28" value="" style="rounded=1;whiteSpace=wrap;html=1;" vertex="1" parent="2Os-_nxIUmYMw6oaQCa7-27">
          <mxGeometry width="120" height="60" as="geometry" />
        </mxCell>
        <mxCell id="2Os-_nxIUmYMw6oaQCa7-29" value="MONDAY" style="text;html=1;strokeColor=none;fillColor=none;align=center;verticalAlign=middle;whiteSpace=wrap;rounded=0;" vertex="1" parent="2Os-_nxIUmYMw6oaQCa7-27">
          <mxGeometry x="30" y="15" width="60" height="30" as="geometry" />
        </mxCell>
        <mxCell id="2Os-_nxIUmYMw6oaQCa7-30" value="Monday user" style="shape=umlActor;verticalLabelPosition=bottom;verticalAlign=top;html=1;outlineConnect=0;" vertex="1" parent="1">
          <mxGeometry x="801" y="-675" width="30" height="60" as="geometry" />
        </mxCell>
        <mxCell id="2Os-_nxIUmYMw6oaQCa7-31" value="" style="rounded=1;whiteSpace=wrap;html=1;" vertex="1" parent="1">
          <mxGeometry x="150" y="-740" width="120" height="60" as="geometry" />
        </mxCell>
        <mxCell id="2Os-_nxIUmYMw6oaQCa7-32" value="ONOFF TELECOM" style="text;html=1;strokeColor=none;fillColor=none;align=center;verticalAlign=middle;whiteSpace=wrap;rounded=0;" vertex="1" parent="1">
          <mxGeometry x="180" y="-725" width="60" height="30" as="geometry" />
        </mxCell>
        <mxCell id="2Os-_nxIUmYMw6oaQCa7-33" value="" style="endArrow=classic;html=1;rounded=0;" edge="1" parent="1">
          <mxGeometry width="50" height="50" relative="1" as="geometry">
            <mxPoint x="790" y="-624.76" as="sourcePoint" />
            <mxPoint x="660" y="-624.76" as="targetPoint" />
          </mxGeometry>
        </mxCell>
        <mxCell id="2Os-_nxIUmYMw6oaQCa7-34" value="&lt;font style=&quot;font-size: 10px;&quot;&gt;Deletes (permanently) an integration from a board&lt;/font&gt;" style="text;html=1;strokeColor=none;fillColor=none;align=center;verticalAlign=middle;whiteSpace=wrap;rounded=0;" vertex="1" parent="1">
          <mxGeometry x="676" y="-664.76" width="110" height="30" as="geometry" />
        </mxCell>
        <mxCell id="2Os-_nxIUmYMw6oaQCa7-37" value="" style="endArrow=classic;html=1;rounded=0;" edge="1" parent="1">
          <mxGeometry width="50" height="50" relative="1" as="geometry">
            <mxPoint x="440" y="-423" as="sourcePoint" />
            <mxPoint x="660" y="-423" as="targetPoint" />
          </mxGeometry>
        </mxCell>
        <mxCell id="2Os-_nxIUmYMw6oaQCa7-38" value="&lt;font style=&quot;font-size: 10px;&quot;&gt;HTTP POST search&lt;/font&gt;" style="text;html=1;strokeColor=none;fillColor=none;align=center;verticalAlign=middle;whiteSpace=wrap;rounded=0;" vertex="1" parent="1">
          <mxGeometry x="490" y="-440" width="120" height="15" as="geometry" />
        </mxCell>
        <mxCell id="2Os-_nxIUmYMw6oaQCa7-39" value="" style="endArrow=classic;html=1;rounded=0;" edge="1" parent="1">
          <mxGeometry width="50" height="50" relative="1" as="geometry">
            <mxPoint x="660" y="-408" as="sourcePoint" />
            <mxPoint x="440" y="-408" as="targetPoint" />
          </mxGeometry>
        </mxCell>
        <mxCell id="2Os-_nxIUmYMw6oaQCa7-40" value="&lt;font style=&quot;font-size: 10px;&quot;&gt;{Contact data}&lt;/font&gt;" style="text;html=1;strokeColor=none;fillColor=none;align=center;verticalAlign=middle;whiteSpace=wrap;rounded=0;" vertex="1" parent="1">
          <mxGeometry x="490" y="-403" width="120" height="15" as="geometry" />
        </mxCell>
        <mxCell id="2Os-_nxIUmYMw6oaQCa7-49" value="" style="group" vertex="1" connectable="0" parent="1">
          <mxGeometry x="209.71" y="-670" width="450.78999999999996" height="180" as="geometry" />
        </mxCell>
        <mxCell id="2Os-_nxIUmYMw6oaQCa7-50" value="" style="endArrow=none;html=1;rounded=0;" edge="1" parent="2Os-_nxIUmYMw6oaQCa7-49">
          <mxGeometry width="50" height="50" relative="1" as="geometry">
            <mxPoint x="230.79" y="180" as="sourcePoint" />
            <mxPoint x="230.29" as="targetPoint" />
          </mxGeometry>
        </mxCell>
        <mxCell id="2Os-_nxIUmYMw6oaQCa7-51" value="" style="endArrow=none;html=1;rounded=0;" edge="1" parent="2Os-_nxIUmYMw6oaQCa7-49">
          <mxGeometry width="50" height="50" relative="1" as="geometry">
            <mxPoint x="450.78999999999996" y="180" as="sourcePoint" />
            <mxPoint x="450.28999999999996" as="targetPoint" />
          </mxGeometry>
        </mxCell>
        <mxCell id="2Os-_nxIUmYMw6oaQCa7-52" value="" style="endArrow=none;html=1;rounded=0;" edge="1" parent="2Os-_nxIUmYMw6oaQCa7-49">
          <mxGeometry width="50" height="50" relative="1" as="geometry">
            <mxPoint x="0.5" y="180" as="sourcePoint" />
            <mxPoint as="targetPoint" />
          </mxGeometry>
        </mxCell>
        <mxCell id="2Os-_nxIUmYMw6oaQCa7-58" value="&lt;font style=&quot;font-size: 8px;&quot;&gt;OK 200 { }&lt;/font&gt;" style="text;html=1;strokeColor=none;fillColor=none;align=center;verticalAlign=middle;whiteSpace=wrap;rounded=0;" vertex="1" parent="2Os-_nxIUmYMw6oaQCa7-49">
          <mxGeometry x="272.28999999999996" y="96" width="130" height="26" as="geometry" />
        </mxCell>
        <mxCell id="2Os-_nxIUmYMw6oaQCa7-35" value="&lt;div style=&quot;text-align: left; font-size: 8px;&quot;&gt;&lt;span style=&quot;&quot;&gt;Removes:&lt;br&gt;&lt;span style=&quot;white-space: pre;&quot;&gt;	&lt;/span&gt;userId&lt;br&gt;&lt;span style=&quot;white-space: pre;&quot;&gt;	&lt;/span&gt;webHookId&lt;br&gt;&lt;span style=&quot;white-space: pre;&quot;&gt;	&lt;/span&gt;boardId&lt;br&gt;&lt;span style=&quot;white-space: pre;&quot;&gt;	&lt;/span&gt;relevantColumnIds&lt;br&gt;&lt;/span&gt;&lt;/div&gt;" style="text;html=1;strokeColor=none;fillColor=none;align=center;verticalAlign=middle;whiteSpace=wrap;rounded=0;" vertex="1" parent="2Os-_nxIUmYMw6oaQCa7-49">
          <mxGeometry x="120.28999999999999" y="75" width="90" height="30" as="geometry" />
        </mxCell>
        <mxCell id="2Os-_nxIUmYMw6oaQCa7-36" value="" style="endArrow=classic;html=1;curved=1;" edge="1" parent="2Os-_nxIUmYMw6oaQCa7-49">
          <mxGeometry width="50" height="50" relative="1" as="geometry">
            <mxPoint x="230.29" y="76" as="sourcePoint" />
            <mxPoint x="230.29" y="95" as="targetPoint" />
            <Array as="points">
              <mxPoint x="201.29" y="76" />
              <mxPoint x="201.29" y="95" />
            </Array>
          </mxGeometry>
        </mxCell>
        <mxCell id="2Os-_nxIUmYMw6oaQCa7-136" value="" style="shape=cylinder3;whiteSpace=wrap;html=1;boundedLbl=1;backgroundOutline=1;size=15;" vertex="1" parent="2Os-_nxIUmYMw6oaQCa7-49">
          <mxGeometry x="80.29" y="64.5" width="29.71" height="50.84" as="geometry" />
        </mxCell>
        <mxCell id="2Os-_nxIUmYMw6oaQCa7-47" value="&lt;font style=&quot;font-size: 8px;&quot;&gt;{ &quot;webhookId&quot;: 12345 }&lt;/font&gt;" style="text;html=1;strokeColor=none;fillColor=none;align=center;verticalAlign=middle;whiteSpace=wrap;rounded=0;" vertex="1" parent="1">
          <mxGeometry x="482" y="-604" width="130" height="26" as="geometry" />
        </mxCell>
        <mxCell id="2Os-_nxIUmYMw6oaQCa7-42" value="" style="endArrow=classic;html=1;rounded=0;" edge="1" parent="1">
          <mxGeometry width="50" height="50" relative="1" as="geometry">
            <mxPoint x="660" y="-599" as="sourcePoint" />
            <mxPoint x="440" y="-599" as="targetPoint" />
          </mxGeometry>
        </mxCell>
        <mxCell id="2Os-_nxIUmYMw6oaQCa7-43" value="&lt;span style=&quot;font-size: 10px;&quot;&gt;HTTP POST unsubscribeUrl&lt;/span&gt;" style="text;html=1;strokeColor=none;fillColor=none;align=center;verticalAlign=middle;whiteSpace=wrap;rounded=0;" vertex="1" parent="1">
          <mxGeometry x="482" y="-623" width="130" height="26" as="geometry" />
        </mxCell>
        <mxCell id="2Os-_nxIUmYMw6oaQCa7-44" value="" style="endArrow=classic;html=1;rounded=0;" edge="1" parent="1">
          <mxGeometry width="50" height="50" relative="1" as="geometry">
            <mxPoint x="440" y="-567" as="sourcePoint" />
            <mxPoint x="660" y="-567" as="targetPoint" />
          </mxGeometry>
        </mxCell>
        <mxCell id="2Os-_nxIUmYMw6oaQCa7-59" value="" style="rounded=1;whiteSpace=wrap;html=1;" vertex="1" parent="1">
          <mxGeometry x="410" y="718" width="120" height="60" as="geometry" />
        </mxCell>
        <mxCell id="2Os-_nxIUmYMw6oaQCa7-60" value="" style="rounded=1;whiteSpace=wrap;html=1;" vertex="1" parent="1">
          <mxGeometry x="140" y="715" width="120" height="60" as="geometry" />
        </mxCell>
        <mxCell id="2Os-_nxIUmYMw6oaQCa7-63" value="End user search a contact from the webapp" style="text;html=1;strokeColor=none;fillColor=none;align=center;verticalAlign=middle;whiteSpace=wrap;rounded=0;" vertex="1" parent="1">
          <mxGeometry x="150" y="715" width="100" height="66" as="geometry" />
        </mxCell>
        <mxCell id="2Os-_nxIUmYMw6oaQCa7-65" value="" style="rounded=1;whiteSpace=wrap;html=1;" vertex="1" parent="1">
          <mxGeometry x="140" y="635" width="120" height="60" as="geometry" />
        </mxCell>
        <mxCell id="2Os-_nxIUmYMw6oaQCa7-67" value="" style="endArrow=classic;html=1;rounded=0;strokeWidth=1;endSize=12;" edge="1" parent="1">
          <mxGeometry width="50" height="50" relative="1" as="geometry">
            <mxPoint x="270" y="655" as="sourcePoint" />
            <mxPoint x="401" y="655" as="targetPoint" />
          </mxGeometry>
        </mxCell>
        <mxCell id="2Os-_nxIUmYMw6oaQCa7-68" value="A call starts in Onoff" style="text;html=1;strokeColor=none;fillColor=none;align=center;verticalAlign=middle;whiteSpace=wrap;rounded=0;" vertex="1" parent="1">
          <mxGeometry x="150" y="635" width="100" height="66" as="geometry" />
        </mxCell>
        <mxCell id="2Os-_nxIUmYMw6oaQCa7-70" value="" style="endArrow=classic;html=1;rounded=0;" edge="1" parent="1" source="2Os-_nxIUmYMw6oaQCa7-69">
          <mxGeometry width="50" height="50" relative="1" as="geometry">
            <mxPoint x="80" y="353" as="sourcePoint" />
            <mxPoint x="440" y="354" as="targetPoint" />
          </mxGeometry>
        </mxCell>
        <mxCell id="2Os-_nxIUmYMw6oaQCa7-71" value="" style="endArrow=none;html=1;rounded=0;endFill=0;" edge="1" parent="1" target="2Os-_nxIUmYMw6oaQCa7-69">
          <mxGeometry width="50" height="50" relative="1" as="geometry">
            <mxPoint x="80" y="353" as="sourcePoint" />
            <mxPoint x="440" y="354" as="targetPoint" />
          </mxGeometry>
        </mxCell>
        <mxCell id="2Os-_nxIUmYMw6oaQCa7-69" value="&lt;span style=&quot;color: rgb(0, 0, 0); font-family: Helvetica; font-size: 10px; font-style: normal; font-variant-ligatures: normal; font-variant-caps: normal; font-weight: 400; letter-spacing: normal; orphans: 2; text-align: center; text-indent: 0px; text-transform: none; widows: 2; word-spacing: 0px; -webkit-text-stroke-width: 0px; text-decoration-thickness: initial; text-decoration-style: initial; text-decoration-color: initial; float: none; display: inline !important; background-color: rgb(255, 255, 255);&quot;&gt;&amp;nbsp;Search CRM contact&lt;/span&gt;" style="text;whiteSpace=wrap;html=1;" vertex="1" parent="1">
          <mxGeometry x="180" y="340" width="100" height="26" as="geometry" />
        </mxCell>
        <mxCell id="2Os-_nxIUmYMw6oaQCa7-74" value="" style="endArrow=classic;html=1;rounded=0;" edge="1" parent="1" source="2Os-_nxIUmYMw6oaQCa7-75">
          <mxGeometry width="50" height="50" relative="1" as="geometry">
            <mxPoint x="440" y="477" as="sourcePoint" />
            <mxPoint x="80" y="477" as="targetPoint" />
          </mxGeometry>
        </mxCell>
        <mxCell id="2Os-_nxIUmYMw6oaQCa7-76" value="" style="endArrow=none;html=1;rounded=0;endFill=0;" edge="1" parent="1" target="2Os-_nxIUmYMw6oaQCa7-75">
          <mxGeometry width="50" height="50" relative="1" as="geometry">
            <mxPoint x="440" y="477" as="sourcePoint" />
            <mxPoint x="80" y="477" as="targetPoint" />
          </mxGeometry>
        </mxCell>
        <mxCell id="2Os-_nxIUmYMw6oaQCa7-78" value="" style="endArrow=none;html=1;rounded=0;endFill=0;" edge="1" parent="1" target="H-iuaEzCQriTZ5NKG3YE-20">
          <mxGeometry width="50" height="50" relative="1" as="geometry">
            <mxPoint x="80" y="298.5" as="sourcePoint" />
            <mxPoint x="210" y="299" as="targetPoint" />
          </mxGeometry>
        </mxCell>
        <mxCell id="H-iuaEzCQriTZ5NKG3YE-20" value="&lt;font style=&quot;font-size: 10px;&quot;&gt;Makes a call&lt;br&gt;&lt;/font&gt;" style="text;html=1;strokeColor=none;fillColor=none;align=center;verticalAlign=middle;whiteSpace=wrap;rounded=0;" parent="1" vertex="1">
          <mxGeometry x="130" y="289" width="58" height="20" as="geometry" />
        </mxCell>
        <mxCell id="2Os-_nxIUmYMw6oaQCa7-79" value="" style="rounded=1;whiteSpace=wrap;html=1;" vertex="1" parent="1">
          <mxGeometry x="410" y="635" width="120" height="60" as="geometry" />
        </mxCell>
        <mxCell id="2Os-_nxIUmYMw6oaQCa7-80" value="The information chosen in the &lt;font color=&quot;#0000ff&quot;&gt;recipe&lt;/font&gt; when integrating &lt;font color=&quot;#0000ff&quot;&gt;board&lt;/font&gt; it is retrieved&amp;nbsp;" style="text;html=1;strokeColor=none;fillColor=none;align=center;verticalAlign=middle;whiteSpace=wrap;rounded=0;" vertex="1" parent="1">
          <mxGeometry x="415" y="626" width="112" height="76" as="geometry" />
        </mxCell>
        <mxCell id="2Os-_nxIUmYMw6oaQCa7-82" value="" style="endArrow=classic;html=1;rounded=0;strokeWidth=1;endSize=12;" edge="1" parent="1">
          <mxGeometry width="50" height="50" relative="1" as="geometry">
            <mxPoint x="400" y="675" as="sourcePoint" />
            <mxPoint x="270" y="675" as="targetPoint" />
          </mxGeometry>
        </mxCell>
        <mxCell id="2Os-_nxIUmYMw6oaQCa7-84" value="The information chosen in the &lt;font color=&quot;#0000ff&quot;&gt;recipe&lt;/font&gt; when integrating &lt;font color=&quot;#0000ff&quot;&gt;board&lt;/font&gt; it is retrieved&amp;nbsp;" style="text;html=1;strokeColor=none;fillColor=none;align=center;verticalAlign=middle;whiteSpace=wrap;rounded=0;" vertex="1" parent="1">
          <mxGeometry x="415" y="710" width="112" height="76" as="geometry" />
        </mxCell>
        <mxCell id="2Os-_nxIUmYMw6oaQCa7-85" value="" style="endArrow=classic;html=1;rounded=0;strokeWidth=1;endSize=12;" edge="1" parent="1">
          <mxGeometry width="50" height="50" relative="1" as="geometry">
            <mxPoint x="270" y="738" as="sourcePoint" />
            <mxPoint x="401" y="738" as="targetPoint" />
          </mxGeometry>
        </mxCell>
        <mxCell id="2Os-_nxIUmYMw6oaQCa7-86" value="" style="endArrow=classic;html=1;rounded=0;strokeWidth=1;endSize=12;" edge="1" parent="1">
          <mxGeometry width="50" height="50" relative="1" as="geometry">
            <mxPoint x="400" y="758" as="sourcePoint" />
            <mxPoint x="270" y="758" as="targetPoint" />
          </mxGeometry>
        </mxCell>
        <mxCell id="2Os-_nxIUmYMw6oaQCa7-93" value="" style="group" vertex="1" connectable="0" parent="1">
          <mxGeometry x="410" y="810" width="120" height="60" as="geometry" />
        </mxCell>
        <mxCell id="2Os-_nxIUmYMw6oaQCa7-94" value="" style="rounded=1;whiteSpace=wrap;html=1;" vertex="1" parent="2Os-_nxIUmYMw6oaQCa7-93">
          <mxGeometry width="120" height="60" as="geometry" />
        </mxCell>
        <mxCell id="2Os-_nxIUmYMw6oaQCa7-95" value="INTEGRATIONS" style="text;html=1;strokeColor=none;fillColor=none;align=center;verticalAlign=middle;whiteSpace=wrap;rounded=0;" vertex="1" parent="2Os-_nxIUmYMw6oaQCa7-93">
          <mxGeometry x="30" y="15" width="60" height="30" as="geometry" />
        </mxCell>
        <mxCell id="2Os-_nxIUmYMw6oaQCa7-96" value="" style="group" vertex="1" connectable="0" parent="1">
          <mxGeometry x="630" y="810" width="120" height="60" as="geometry" />
        </mxCell>
        <mxCell id="2Os-_nxIUmYMw6oaQCa7-97" value="" style="rounded=1;whiteSpace=wrap;html=1;" vertex="1" parent="2Os-_nxIUmYMw6oaQCa7-96">
          <mxGeometry width="120" height="60" as="geometry" />
        </mxCell>
        <mxCell id="2Os-_nxIUmYMw6oaQCa7-98" value="MONDAY" style="text;html=1;strokeColor=none;fillColor=none;align=center;verticalAlign=middle;whiteSpace=wrap;rounded=0;" vertex="1" parent="2Os-_nxIUmYMw6oaQCa7-96">
          <mxGeometry x="30" y="15" width="60" height="30" as="geometry" />
        </mxCell>
        <mxCell id="2Os-_nxIUmYMw6oaQCa7-99" value="Onoff user" style="shape=umlActor;verticalLabelPosition=bottom;verticalAlign=top;html=1;outlineConnect=0;" vertex="1" parent="1">
          <mxGeometry x="29" y="910" width="30" height="60" as="geometry" />
        </mxCell>
        <mxCell id="2Os-_nxIUmYMw6oaQCa7-100" value="" style="rounded=1;whiteSpace=wrap;html=1;" vertex="1" parent="1">
          <mxGeometry x="175" y="810" width="130" height="60" as="geometry" />
        </mxCell>
        <mxCell id="2Os-_nxIUmYMw6oaQCa7-101" value="" style="endArrow=classic;html=1;curved=1;exitX=0.5;exitY=1;exitDx=0;exitDy=0;" edge="1" parent="1" source="2Os-_nxIUmYMw6oaQCa7-127">
          <mxGeometry width="50" height="50" relative="1" as="geometry">
            <mxPoint x="340" y="980" as="sourcePoint" />
            <mxPoint x="470" y="997" as="targetPoint" />
            <Array as="points">
              <mxPoint x="340" y="997" />
              <mxPoint x="390" y="997" />
            </Array>
          </mxGeometry>
        </mxCell>
        <mxCell id="2Os-_nxIUmYMw6oaQCa7-102" value="ONOFF TELECOM&lt;br&gt;&lt;font style=&quot;font-size: 8px;&quot;&gt;Incoming/outgoing call/sms/VM&lt;/font&gt;" style="text;html=1;strokeColor=none;fillColor=none;align=center;verticalAlign=middle;whiteSpace=wrap;rounded=0;" vertex="1" parent="1">
          <mxGeometry x="130" y="825" width="220" height="30" as="geometry" />
        </mxCell>
        <mxCell id="2Os-_nxIUmYMw6oaQCa7-103" value="" style="endArrow=classic;html=1;rounded=0;" edge="1" source="2Os-_nxIUmYMw6oaQCa7-118" parent="1">
          <mxGeometry width="50" height="50" relative="1" as="geometry">
            <mxPoint x="87" y="938.5" as="sourcePoint" />
            <mxPoint x="217" y="939" as="targetPoint" />
          </mxGeometry>
        </mxCell>
        <mxCell id="2Os-_nxIUmYMw6oaQCa7-104" value="&lt;font style=&quot;font-size: 8px;&quot;&gt;Sends an event with fields to include in the log&lt;/font&gt;" style="text;html=1;strokeColor=none;fillColor=none;align=center;verticalAlign=middle;whiteSpace=wrap;rounded=0;" vertex="1" parent="1">
          <mxGeometry x="342" y="982" width="130" height="26" as="geometry" />
        </mxCell>
        <mxCell id="2Os-_nxIUmYMw6oaQCa7-107" value="" style="endArrow=classic;html=1;rounded=0;" edge="1" parent="1">
          <mxGeometry width="50" height="50" relative="1" as="geometry">
            <mxPoint x="470" y="1061" as="sourcePoint" />
            <mxPoint x="690" y="1061" as="targetPoint" />
          </mxGeometry>
        </mxCell>
        <mxCell id="2Os-_nxIUmYMw6oaQCa7-108" value="&lt;font style=&quot;font-size: 10px;&quot;&gt;HTTP POST search&lt;/font&gt;" style="text;html=1;strokeColor=none;fillColor=none;align=center;verticalAlign=middle;whiteSpace=wrap;rounded=0;" vertex="1" parent="1">
          <mxGeometry x="520" y="1044" width="120" height="15" as="geometry" />
        </mxCell>
        <mxCell id="2Os-_nxIUmYMw6oaQCa7-109" value="" style="endArrow=classic;html=1;rounded=0;" edge="1" parent="1">
          <mxGeometry width="50" height="50" relative="1" as="geometry">
            <mxPoint x="690" y="1076" as="sourcePoint" />
            <mxPoint x="470" y="1076" as="targetPoint" />
          </mxGeometry>
        </mxCell>
        <mxCell id="2Os-_nxIUmYMw6oaQCa7-110" value="&lt;font style=&quot;font-size: 10px;&quot;&gt;{Contact data}&lt;/font&gt;" style="text;html=1;strokeColor=none;fillColor=none;align=center;verticalAlign=middle;whiteSpace=wrap;rounded=0;" vertex="1" parent="1">
          <mxGeometry x="520" y="1081" width="120" height="15" as="geometry" />
        </mxCell>
        <mxCell id="2Os-_nxIUmYMw6oaQCa7-117" value="" style="endArrow=none;html=1;rounded=0;endFill=0;" edge="1" target="2Os-_nxIUmYMw6oaQCa7-118" parent="1">
          <mxGeometry width="50" height="50" relative="1" as="geometry">
            <mxPoint x="87" y="938.5" as="sourcePoint" />
            <mxPoint x="217" y="939" as="targetPoint" />
          </mxGeometry>
        </mxCell>
        <mxCell id="2Os-_nxIUmYMw6oaQCa7-118" value="&lt;font style=&quot;font-size: 10px;&quot;&gt;Incoming/outgoing call/sms/VM&lt;br&gt;&lt;/font&gt;" style="text;html=1;strokeColor=none;fillColor=none;align=center;verticalAlign=middle;whiteSpace=wrap;rounded=0;" vertex="1" parent="1">
          <mxGeometry x="117" y="929" width="58" height="20" as="geometry" />
        </mxCell>
        <mxCell id="H-iuaEzCQriTZ5NKG3YE-1" value="" style="endArrow=none;html=1;rounded=0;" parent="1" edge="1">
          <mxGeometry width="50" height="50" relative="1" as="geometry">
            <mxPoint x="210" y="490" as="sourcePoint" />
            <mxPoint x="209.5" y="250" as="targetPoint" />
          </mxGeometry>
        </mxCell>
        <mxCell id="H-iuaEzCQriTZ5NKG3YE-13" value="" style="endArrow=none;html=1;rounded=0;" parent="1" edge="1">
          <mxGeometry width="50" height="50" relative="1" as="geometry">
            <mxPoint x="440.5" y="490" as="sourcePoint" />
            <mxPoint x="440" y="250" as="targetPoint" />
          </mxGeometry>
        </mxCell>
        <mxCell id="H-iuaEzCQriTZ5NKG3YE-14" value="" style="endArrow=none;html=1;rounded=0;" parent="1" edge="1">
          <mxGeometry width="50" height="50" relative="1" as="geometry">
            <mxPoint x="660.5" y="490" as="sourcePoint" />
            <mxPoint x="660" y="250" as="targetPoint" />
          </mxGeometry>
        </mxCell>
        <mxCell id="2Os-_nxIUmYMw6oaQCa7-122" style="orthogonalLoop=1;jettySize=auto;html=1;exitX=1;exitY=0;exitDx=0;exitDy=0;endArrow=none;endFill=0;dashed=1;strokeWidth=0.5;" edge="1" parent="1" source="2Os-_nxIUmYMw6oaQCa7-119">
          <mxGeometry relative="1" as="geometry">
            <mxPoint x="740" y="390" as="targetPoint" />
            <Array as="points">
              <mxPoint x="690" y="390" />
            </Array>
          </mxGeometry>
        </mxCell>
        <mxCell id="2Os-_nxIUmYMw6oaQCa7-119" value="" style="rounded=0;whiteSpace=wrap;html=1;fillStyle=auto;fillColor=none;dashed=1;strokeWidth=0.5;" vertex="1" parent="1">
          <mxGeometry x="429.5" y="407" width="260" height="60" as="geometry" />
        </mxCell>
        <mxCell id="2Os-_nxIUmYMw6oaQCa7-123" value="&lt;font style=&quot;font-size: 10px;&quot;&gt;For each integrated board by this company&lt;/font&gt;" style="text;html=1;strokeColor=none;fillColor=none;align=left;verticalAlign=middle;whiteSpace=wrap;rounded=0;" vertex="1" parent="1">
          <mxGeometry x="696.5" y="374" width="169.5" height="30" as="geometry" />
        </mxCell>
        <mxCell id="2Os-_nxIUmYMw6oaQCa7-75" value="&lt;font style=&quot;font-size: 10px; background-color: rgb(255, 255, 255);&quot;&gt;{Contact data}&lt;/font&gt;" style="text;html=1;align=center;verticalAlign=middle;whiteSpace=wrap;rounded=0;fillColor=#FFFFFF;" vertex="1" parent="1">
          <mxGeometry x="195" y="470" width="70" height="15" as="geometry" />
        </mxCell>
        <mxCell id="2Os-_nxIUmYMw6oaQCa7-124" value="&lt;font style=&quot;font-size: 10px;&quot;&gt;For each integrated board by this company create an item in Onoff call / Onoff sms board&lt;/font&gt;" style="text;html=1;strokeColor=none;fillColor=none;align=left;verticalAlign=middle;whiteSpace=wrap;rounded=0;" vertex="1" parent="1">
          <mxGeometry x="717" y="1005" width="213" height="30" as="geometry" />
        </mxCell>
        <mxCell id="2Os-_nxIUmYMw6oaQCa7-126" style="orthogonalLoop=1;jettySize=auto;html=1;exitX=1;exitY=0;exitDx=0;exitDy=0;endArrow=none;endFill=0;dashed=1;strokeWidth=0.5;" edge="1" source="2Os-_nxIUmYMw6oaQCa7-125" parent="1">
          <mxGeometry relative="1" as="geometry">
            <mxPoint x="760.5" y="1021" as="targetPoint" />
            <Array as="points">
              <mxPoint x="710.5" y="1021" />
            </Array>
          </mxGeometry>
        </mxCell>
        <mxCell id="2Os-_nxIUmYMw6oaQCa7-90" value="" style="endArrow=none;html=1;rounded=0;" edge="1" parent="1">
          <mxGeometry width="50" height="50" relative="1" as="geometry">
            <mxPoint x="218" y="1130" as="sourcePoint" />
            <mxPoint x="217.5" y="890" as="targetPoint" />
          </mxGeometry>
        </mxCell>
        <mxCell id="2Os-_nxIUmYMw6oaQCa7-91" value="" style="endArrow=none;html=1;rounded=0;" edge="1" parent="1">
          <mxGeometry width="50" height="50" relative="1" as="geometry">
            <mxPoint x="470.5" y="1130" as="sourcePoint" />
            <mxPoint x="470" y="890" as="targetPoint" />
          </mxGeometry>
        </mxCell>
        <mxCell id="2Os-_nxIUmYMw6oaQCa7-92" value="" style="endArrow=none;html=1;rounded=0;" edge="1" parent="1">
          <mxGeometry width="50" height="50" relative="1" as="geometry">
            <mxPoint x="690.5" y="1130" as="sourcePoint" />
            <mxPoint x="690" y="890" as="targetPoint" />
          </mxGeometry>
        </mxCell>
        <mxCell id="2Os-_nxIUmYMw6oaQCa7-105" value="&lt;div style=&quot;text-align: left;&quot;&gt;&lt;span style=&quot;font-size: 10px; background-color: initial;&quot;&gt;Verifications:&lt;/span&gt;&lt;/div&gt;&lt;font size=&quot;1&quot; style=&quot;&quot;&gt;&lt;div style=&quot;text-align: left;&quot;&gt;&lt;span style=&quot;background-color: initial; font-size: 8px;&quot;&gt;is there Monday board integration&lt;/span&gt;&lt;/div&gt;&lt;/font&gt;" style="text;html=1;strokeColor=none;fillColor=none;align=center;verticalAlign=middle;whiteSpace=wrap;rounded=0;" vertex="1" parent="1">
          <mxGeometry x="510" y="1000" width="80" height="30" as="geometry" />
        </mxCell>
        <mxCell id="2Os-_nxIUmYMw6oaQCa7-106" value="" style="endArrow=classic;html=1;curved=1;" edge="1" parent="1">
          <mxGeometry width="50" height="50" relative="1" as="geometry">
            <mxPoint x="470" y="1008" as="sourcePoint" />
            <mxPoint x="470" y="1027" as="targetPoint" />
            <Array as="points">
              <mxPoint x="500" y="1008" />
              <mxPoint x="500" y="1028" />
            </Array>
          </mxGeometry>
        </mxCell>
        <mxCell id="2Os-_nxIUmYMw6oaQCa7-128" value="Messaging service" style="text;html=1;strokeColor=none;fillColor=none;align=center;verticalAlign=middle;whiteSpace=wrap;rounded=0;" vertex="1" parent="1">
          <mxGeometry x="840" y="1550" width="60" height="30" as="geometry" />
        </mxCell>
        <mxCell id="2Os-_nxIUmYMw6oaQCa7-132" style="edgeStyle=orthogonalEdgeStyle;orthogonalLoop=1;jettySize=auto;html=1;startArrow=classic;startFill=1;endArrow=none;endFill=0;curved=1;" edge="1" parent="1">
          <mxGeometry relative="1" as="geometry">
            <mxPoint x="220" y="970" as="targetPoint" />
            <mxPoint x="300" y="920" as="sourcePoint" />
            <Array as="points">
              <mxPoint x="260" y="920" />
              <mxPoint x="260" y="970" />
            </Array>
          </mxGeometry>
        </mxCell>
        <mxCell id="2Os-_nxIUmYMw6oaQCa7-129" value="Messaging service" style="text;html=1;strokeColor=none;fillColor=none;align=center;verticalAlign=middle;whiteSpace=wrap;rounded=0;" vertex="1" parent="1">
          <mxGeometry x="310" y="905" width="60" height="30" as="geometry" />
        </mxCell>
      </root>
    </mxGraphModel>
  </diagram>
</mxfile>
